# xmcd
#
# Track frame offsets:
#	150
#	15835
#	31183
#	44754
#	58556
#	74230
#	90904
#	109291
#	125923
#	137867
#	157798
#	174788
#	192413
#	217178
#	233163
#	250455
#	265724
#	282687
#	301045
#	313706
#
# Disc length: 4359 seconds
#
# Revision: 0
# Processed by: cddbd v1.5.2PL0 Copyright (c) Steve Scherf et al.
# Submitted via: EasyCDDAExtractor 16.0.6.1
#
DISCID=23110514
DTITLE=Fernando and Sorocaba - Bola de Cristal
DYEAR=2010
DGENRE=Sertanejo
TTITLE0=Bola de Cristal
TTITLE1=A Casa Caiu
TTITLE2=Tô passando mal "Tatatata"
TTITLE3=Teus Segredos
TTITLE4=Celebridade
TTITLE5=Delegada
TTITLE6=Até o Final
TTITLE7=Joga no Lixo
TTITLE8=Vê se para com essa marra
TTITLE9=Madri
TTITLE10=Desorientado
TTITLE11=Boca à Boca
TTITLE12=Que raiva que dá - da cor do Pecado
TTITLE13=Vacilei
TTITLE14=6 de Janeiro de 2003
TTITLE15=Por que tá comigo
TTITLE16=\nMe engana
TTITLE17=Copinho - Henrique and Diego
TTITLE18=Vai - Henrique and Diego
TTITLE19=Barraco - Thaeme
EXTD=
EXTT0=
EXTT1=
EXTT2=
EXTT3=
EXTT4=
EXTT5=
EXTT6=
EXTT7=
EXTT8=
EXTT9=
EXTT10=
EXTT11=
EXTT12=
EXTT13=
EXTT14=
EXTT15=
EXTT16=
EXTT17=
EXTT18=
EXTT19=
PLAYORDER=
